HIERARCHY
ROOT Hips
{
	OFFSET 0.000000 0.000000 0.000000
	CHANNELS 6 Xposition Yposition Zposition Xrotation Yrotation Zrotation
	JOINT LeftUpLeg_virtual
	{
		OFFSET 0.000000 0.000000 0.000000
		CHANNELS 3 Xrotation Yrotation Zrotation
		JOINT LeftUpLeg
		{
			OFFSET 13.026900 -6.336304 -1.092800
			CHANNELS 3 Xrotation Yrotation Zrotation
			JOINT LeftLeg
			{
				OFFSET 0.524474 -46.096886 9.782700
				CHANNELS 3 Xrotation Yrotation Zrotation
				JOINT LeftFoot
				{
					OFFSET -0.524474 -53.427422 -12.948200
					CHANNELS 3 Xrotation Yrotation Zrotation
					JOINT LeftToeBase
					{
						OFFSET 0.192200 -14.009700 16.364100
						CHANNELS 3 Xrotation Yrotation Zrotation
						JOINT LeftToe_End
						{
							OFFSET -1.784700 -0.561700 9.474800
							CHANNELS 3 Xrotation Yrotation Zrotation
							End Site
							{
								OFFSET 0 0 0
							}
						}
					}
				}
			}
		}
	}
	JOINT RightUpLeg_virtual
	{
		OFFSET 0.000000 0.000000 0.000000
		CHANNELS 3 Xrotation Yrotation Zrotation
		JOINT RightUpLeg
		{
			OFFSET -12.883000 -6.336304 -1.092800
			CHANNELS 3 Xrotation Yrotation Zrotation
			JOINT RightLeg
			{
				OFFSET -0.524587 -46.096825 9.782800
				CHANNELS 3 Xrotation Yrotation Zrotation
				JOINT RightFoot
				{
					OFFSET 0.524587 -53.427383 -12.948300
					CHANNELS 3 Xrotation Yrotation Zrotation
					JOINT RightToeBase
					{
						OFFSET -0.192200 -14.009700 16.364100
						CHANNELS 3 Xrotation Yrotation Zrotation
						JOINT RightToe_End
						{
							OFFSET 1.784700 -0.561700 9.474800
							CHANNELS 3 Xrotation Yrotation Zrotation
							End Site
							{
								OFFSET 0 0 0
							}
						}
					}
				}
			}
		}
	}
	JOINT Spine_virtual
	{
		OFFSET 0.000000 0.000000 0.000000
		CHANNELS 3 Xrotation Yrotation Zrotation
		JOINT Spine
		{
			OFFSET 0.072000 7.257294 -0.789700
			CHANNELS 3 Xrotation Yrotation Zrotation
			JOINT Spine1
			{
				OFFSET 0.000000 12.508769 -0.658067
				CHANNELS 3 Xrotation Yrotation Zrotation
				JOINT Spine1_split
				{
					OFFSET 0.000000 12.508769 -0.658067
					CHANNELS 3 Xrotation Yrotation Zrotation
					JOINT Spine2
					{
						OFFSET 0.000000 12.508769 -0.658067
						CHANNELS 3 Xrotation Yrotation Zrotation
						JOINT Neck_virtual
						{
							OFFSET 0.000000 0.000000 0.000000
							CHANNELS 3 Xrotation Yrotation Zrotation
							JOINT Neck
							{
								OFFSET 0.000000 14.033295 7.520400
								CHANNELS 3 Xrotation Yrotation Zrotation
								JOINT Head
								{
									OFFSET 0.000000 8.198502 5.703100
									CHANNELS 3 Xrotation Yrotation Zrotation
									JOINT HeadTop_End
									{
										OFFSET 0.000000 17.760803 13.332701
										CHANNELS 3 Xrotation Yrotation Zrotation
										End Site
										{
											OFFSET 0 0 0
										}
									}
								}
							}
						}
						JOINT LeftShoulder_virtual
						{
							OFFSET 0.000000 0.000000 0.000000
							CHANNELS 3 Xrotation Yrotation Zrotation
							JOINT LeftShoulder
							{
								OFFSET 6.292450 5.785301 -0.669000
								CHANNELS 3 Xrotation Yrotation Zrotation
								JOINT LeftShoulder_split
								{
									OFFSET 6.292450 5.785301 -0.669000
									CHANNELS 3 Xrotation Yrotation Zrotation
									JOINT LeftArm
									{
										OFFSET 13.907140 -6.093903 1.965100
										CHANNELS 3 Xrotation Yrotation Zrotation
										JOINT LeftForeArm
										{
											OFFSET 34.140198 0.000000 0.000000
											CHANNELS 3 Xrotation Yrotation Zrotation
											JOINT LeftHand
											{
												OFFSET 40.960209 0.000000 0.000000
												CHANNELS 3 Xrotation Yrotation Zrotation
												End Site
												{
													OFFSET 0 0 0
												}
											}
										}
									}
								}
							}
						}
						JOINT RightShoulder_virtual
						{
							OFFSET 0.000000 0.000000 0.000000
							CHANNELS 3 Xrotation Yrotation Zrotation
							JOINT RightShoulder
							{
								OFFSET -6.292450 5.785301 -0.669000
								CHANNELS 3 Xrotation Yrotation Zrotation
								JOINT RightShoulder_split
								{
									OFFSET -6.292450 5.785301 -0.669000
									CHANNELS 3 Xrotation Yrotation Zrotation
									JOINT RightArm
									{
										OFFSET -13.907140 -6.093903 1.965100
										CHANNELS 3 Xrotation Yrotation Zrotation
										JOINT RightForeArm
										{
											OFFSET -34.140198 0.000000 0.000000
											CHANNELS 3 Xrotation Yrotation Zrotation
											JOINT RightHand
											{
												OFFSET -40.960209 0.000000 0.000000
												CHANNELS 3 Xrotation Yrotation Zrotation
												End Site
												{
													OFFSET 0 0 0
												}
											}
										}
									}
								}
							}
						}
					}
				}
			}
		}
	}
}
MOTION
Frames: 8
Frame Time: 0.03333333
-9.954792 183.749237 -2.997189 0.000000 0.000000 0.000000 9.383543 -27.149940 3.071002 -135.782084 -31.048903 27.307551 111.901646 -18.550247 -3.267884 36.697848 -21.112349 -3.743644 -3.729298 -0.040875 2.250975 0.000000 0.000000 0.000000 10.436982 -27.879652 1.498704 -74.947338 31.599085 -66.098138 98.554261 24.294377 19.336645 3.470379 24.743515 15.336326 0.986823 0.604606 3.042354 0.000000 0.000000 0.000000 9.967686 -24.332322 1.666164 30.001889 7.421707 3.219116 5.598830 1.323330 0.625431 -1.581581 1.638083 0.148406 0.000000 0.000000 0.000000 8.032037 1.199751 1.665048 7.075317 1.854591 2.073540 -2.733040 37.063858 -24.851836 0.000000 0.000000 0.000000 6.876447 1.763489 0.369749 0.729176 -4.143679 9.535594 2.401752 -0.618254 2.243799 -36.146437 19.307968 16.008664 -2.782995 -8.306959 -1.636782 0.000000 0.000000 0.000000 8.167816 1.750304 0.916780 -2.705943 -4.889941 -29.061075 4.366627 0.064222 -1.663335 -49.704362 10.538364 -10.092826 1.266432 22.296533 -1.583873 0.000000 0.000000 0.000000 
-10.511239 179.991425 -1.869438 0.000000 0.000000 0.000000 8.494478 -29.949942 2.226989 -140.265858 -28.590374 27.816145 117.640610 -16.433544 -2.008009 42.479474 -22.802520 2.740401 -2.595444 -0.264963 2.095702 0.000000 0.000000 0.000000 10.851401 -28.410317 0.709717 -70.496438 23.937154 -66.544081 95.715553 23.185818 20.066008 1.091416 24.063433 14.305847 -1.746945 0.645494 2.657320 0.000000 0.000000 0.000000 10.299466 -23.034244 0.230689 29.066536 8.482606 3.791139 5.574525 1.681400 0.483170 -0.703123 1.641719 0.774191 0.000000 0.000000 0.000000 8.493852 1.093757 1.456551 7.982440 1.434036 2.076046 -2.599475 36.364105 -25.005246 0.000000 0.000000 0.000000 6.734726 1.844162 0.036737 0.732502 -4.130766 8.377982 1.653897 -1.139251 0.507555 -35.324027 16.670970 22.295319 -2.602669 -7.206323 -1.124032 0.000000 0.000000 0.000000 8.620490 1.766240 0.710585 -2.545834 -3.642894 -30.170274 3.196740 1.005752 -2.092342 -41.968244 6.074708 -18.546829 1.736139 22.845169 -1.905066 0.000000 0.000000 0.000000 
-11.066014 173.955109 -2.208145 0.000000 0.000000 0.000000 6.870243 -30.250027 0.410784 -139.473446 -25.750629 28.485027 120.524193 -14.049465 -0.512610 44.276039 -23.867153 7.384804 -3.727666 -0.534018 2.200164 0.000000 0.000000 0.000000 9.699681 -27.442763 -1.048809 -66.807562 14.808612 -60.996280 95.379309 21.269692 18.679488 -2.708090 20.631785 13.293424 -3.260179 0.715621 2.037184 0.000000 0.000000 0.000000 9.900702 -20.337079 -1.744526 27.577843 9.026504 4.430295 5.416965 1.925480 0.311739 0.565971 1.793681 1.016545 0.000000 0.000000 0.000000 8.672196 0.931430 1.125387 8.306664 1.139804 2.468000 -2.402399 35.374035 -24.546040 0.000000 0.000000 0.000000 6.512454 1.797460 -0.195240 0.642167 -3.905938 7.515434 0.967900 -2.073462 -1.329664 -34.018242 13.328809 26.568183 -2.219113 -5.778570 -0.509101 0.000000 0.000000 0.000000 8.761439 1.579352 0.408366 -1.815781 -1.497839 -29.438190 2.185115 2.390322 -2.318061 -35.242144 1.666293 -23.730162 1.522577 25.637766 -1.935538 0.000000 0.000000 0.000000 
-11.449994 166.521011 -2.976646 0.000000 0.000000 0.000000 4.600016 -27.534431 -2.204139 -134.120409 -23.154070 28.506686 119.821421 -11.629667 0.703189 44.446855 -23.992983 9.554715 -6.963181 -0.741717 2.386065 0.000000 0.000000 0.000000 7.331114 -25.029730 -3.398114 -62.777805 5.902963 -50.677473 96.264099 18.638949 15.647140 -7.198280 15.504289 12.141853 -4.258057 0.763805 1.355715 0.000000 0.000000 0.000000 8.867544 -16.607767 -3.678740 25.535832 8.884695 5.066670 5.012345 2.041043 0.184564 1.034974 2.233878 0.696696 0.000000 0.000000 0.000000 8.460420 0.811098 0.799060 8.285845 0.989302 3.123024 -2.158003 34.312750 -23.640063 0.000000 0.000000 0.000000 5.994522 1.728074 -0.269307 0.426538 -3.548833 6.976237 0.415572 -2.973047 -2.424585 -32.891114 11.544105 28.406130 -1.693853 -3.533384 0.008074 0.000000 0.000000 0.000000 8.352995 1.295384 0.170364 -0.786976 0.836877 -27.171853 2.005505 3.335434 -2.197903 -31.741699 -2.604885 -24.500802 0.762174 29.198089 -1.821491 0.000000 0.000000 0.000000 
-11.327346 158.131592 -4.481934 0.000000 0.000000 0.000000 2.203212 -23.226977 -4.810785 -124.500442 -21.235760 27.352117 115.665961 -8.870237 1.179173 44.075781 -21.579447 9.699856 -9.359737 -0.780079 1.830247 0.000000 0.000000 0.000000 4.677372 -21.155913 -5.650775 -57.042769 -1.211732 -38.105257 95.673055 15.671896 11.918288 -11.757124 10.018192 10.582214 -4.987768 0.707714 0.873604 0.000000 0.000000 0.000000 6.851333 -13.254996 -5.219103 23.138692 8.109583 5.460323 4.353579 2.061395 0.141910 1.549173 2.353789 0.349074 0.000000 0.000000 0.000000 7.742136 0.802567 0.555336 8.185065 0.826385 3.682042 -1.913380 33.142147 -22.367206 0.000000 0.000000 0.000000 5.370473 1.677769 -0.135030 0.256088 -2.829586 6.599899 0.063601 -3.161403 -2.692889 -31.834955 12.696686 27.129655 -1.256338 -0.890539 0.222730 0.000000 0.000000 0.000000 7.427137 1.084272 0.037743 0.191333 2.694382 -23.966092 1.954312 3.935905 -1.761769 -31.326044 -7.761374 -21.337190 -0.349510 31.554446 -1.713888 0.000000 0.000000 0.000000 
-10.919116 148.977921 -5.569092 0.000000 0.000000 0.000000 0.307230 -17.949725 -6.647605 -110.459773 -19.415059 25.203082 107.845620 -4.962770 0.202265 41.098935 -15.820805 9.176892 -8.096061 -0.529477 0.295125 0.000000 0.000000 0.000000 2.052549 -16.909375 -7.211500 -49.351303 -5.513924 -25.918258 91.798999 13.126176 7.859493 -15.346498 5.492377 9.250453 -5.908082 0.520412 0.680972 0.000000 0.000000 0.000000 4.330149 -10.690168 -6.061124 20.595918 6.907216 5.499900 3.642599 2.086046 0.164676 1.973167 2.397351 0.145454 0.000000 0.000000 0.000000 6.619720 0.904456 0.411512 7.993053 0.703268 3.955987 -1.369653 32.066290 -21.069119 0.000000 0.000000 0.000000 4.699816 1.649721 0.106329 0.108750 -1.597416 6.181283 -0.265899 -3.103651 -1.930724 -29.871935 17.639910 21.579820 -1.032663 1.325255 0.123769 0.000000 0.000000 0.000000 6.237186 0.995372 -0.045825 1.000701 3.684676 -20.266546 2.104754 3.494882 -1.756715 -31.970702 -14.445483 -14.456435 -1.469118 31.471678 -1.754386 0.000000 0.000000 0.000000 
-10.445433 139.406555 -6.968483 0.000000 0.000000 0.000000 -1.630651 -12.497324 -7.415125 -92.347381 -17.272548 22.735135 96.431930 0.214738 -1.394963 33.516893 -8.429602 8.654874 -4.473410 -0.272952 -1.544273 0.000000 0.000000 0.000000 -0.723110 -12.405188 -7.693499 -41.198431 -6.695758 -16.878005 84.330379 12.020117 3.336009 -17.370044 2.893211 9.933013 -8.399119 0.203412 0.664654 0.000000 0.000000 0.000000 1.667709 -9.138941 -6.240428 18.382650 5.480639 5.060768 3.076731 2.087318 0.173618 1.861855 2.026594 0.402336 0.000000 0.000000 0.000000 5.348009 1.039263 0.294348 7.551862 0.590899 3.779124 -0.611733 31.161365 -19.854880 0.000000 0.000000 0.000000 4.067320 1.599933 0.275222 -0.017679 0.036797 5.521544 -0.869524 -2.685873 -1.014958 -25.943118 24.690135 10.583782 -0.940576 2.654041 -0.142716 0.000000 0.000000 0.000000 5.046268 0.969706 -0.115479 1.588941 3.640376 -16.842536 2.608108 2.790870 -2.013153 -30.435924 -22.517947 -3.676742 -2.135223 29.337845 -2.095203 0.000000 0.000000 0.000000 
-10.036521 129.288376 -8.494671 0.000000 0.000000 0.000000 -3.430189 -7.425992 -6.977670 -72.618127 -15.251461 18.955979 83.383735 5.351524 -1.786743 21.761447 -2.484579 7.699175 -2.073565 -0.256798 -2.719251 0.000000 0.000000 0.000000 -3.509905 -8.333446 -7.182504 -33.093540 -6.110293 -11.814795 74.371601 13.048002 -1.255834 -18.114338 1.442644 13.029756 -12.225487 -0.289231 0.767670 0.000000 0.000000 0.000000 -0.732930 -8.322160 -5.764570 17.156691 4.060566 4.150732 2.823781 1.985213 0.093664 1.741409 1.634559 0.912605 0.000000 0.000000 0.000000 4.192038 1.100817 0.108901 6.471684 0.571550 3.258323 0.097210 30.413917 -18.778606 0.000000 0.000000 0.000000 3.712478 1.404575 0.260380 -0.075686 1.981277 4.805316 -1.441643 -2.233363 -0.506531 -19.097793 30.365911 -5.789387 -1.071757 2.252878 -0.464926 0.000000 0.000000 0.000000 4.256527 0.904035 -0.262007 2.013556 2.945438 -13.970079 2.943614 2.429790 -2.807065 -23.367274 -29.692984 11.961682 -2.238773 27.539239 -2.478733 0.000000 0.000000 0.000000 
